# xmcd
#
# Track frame offsets:
#	150
#	20649
#	39233
#	55528
#	76343
#	94702
#	112618
#
# Disc length: 1709 seconds
#
# Revision: 0
# Processed by: cddbd v1.5.2PL0 Copyright (c) Steve Scherf et al.
# Submitted via: EasyCDDAExtractor 2010.4.0.0
#
DISCID=4006ab07
DTITLE=조수미 - 그.리.라.
DYEAR=2015
DGENRE=
TTITLE0=사랑, 그 쓸쓸함에 대해서
TTITLE1=꽃밭에서
TTITLE2=나무
TTITLE3=바람이 분다
TTITLE4=꽃
TTITLE5=흩어진 나날들
TTITLE6=그대 내 맘에 들어오면은
EXTD=
EXTT0=
EXTT1=
EXTT2=
EXTT3=
EXTT4=
EXTT5=
EXTT6=
PLAYORDER=
